<?xml version="1.0" encoding="UTF-8"?>
<svg xmlns="http://www.w3.org/2000/svg" xmlns:xlink="http://www.w3.org/1999/xlink" width="2100" height="2100" viewBox="0 0 2100 2100">
<defs>
<clipPath id="clip-0">
<path clip-rule="nonzero" d="M 1816 1356 L 1845 1356 L 1845 1394 L 1816 1394 Z M 1816 1356 "/>
</clipPath>
<clipPath id="clip-1">
<path clip-rule="nonzero" d="M 1844.96875 1356.519531 C 1835.871094 1369.191406 1826.21875 1381.691406 1816.050781 1394 C 1826.21875 1381.691406 1835.871094 1369.191406 1844.96875 1356.519531 Z M 1844.96875 1356.519531 "/>
</clipPath>
<clipPath id="clip-2">
<path clip-rule="nonzero" d="M 1844.96875 1356.519531 C 1835.871094 1369.191406 1826.21875 1381.691406 1816.050781 1394 C 1826.21875 1381.691406 1835.871094 1369.191406 1844.96875 1356.519531 "/>
</clipPath>
<linearGradient id="linear-pattern-0" gradientUnits="userSpaceOnUse" x1="0.73515" y1="0" x2="0.80014" y2="0" gradientTransform="matrix(126.349, 639.644, 639.644, -126.349, 1733.52, 884.24)">
<stop offset="0" stop-color="rgb(75.602722%, 54.391479%, 10.514832%)" stop-opacity="1"/>
<stop offset="0.125" stop-color="rgb(75.448608%, 54.255676%, 10.533142%)" stop-opacity="1"/>
<stop offset="0.25" stop-color="rgb(75.128174%, 54.058838%, 10.585022%)" stop-opacity="1"/>
<stop offset="0.3125" stop-color="rgb(74.876404%, 53.982544%, 10.638428%)" stop-opacity="1"/>
<stop offset="0.375" stop-color="rgb(74.705505%, 53.959656%, 10.681152%)" stop-opacity="1"/>
<stop offset="0.5" stop-color="rgb(74.459839%, 53.845215%, 10.726929%)" stop-opacity="1"/>
<stop offset="0.625" stop-color="rgb(74.150085%, 53.608704%, 10.768127%)" stop-opacity="1"/>
<stop offset="0.75" stop-color="rgb(73.959351%, 53.385925%, 10.797119%)" stop-opacity="1"/>
<stop offset="1" stop-color="rgb(73.797607%, 53.161621%, 10.826111%)" stop-opacity="1"/>
</linearGradient>
<clipPath id="clip-3">
<path clip-rule="nonzero" d="M 1862 1278 L 1893 1278 L 1893 1331 L 1862 1331 Z M 1862 1278 "/>
</clipPath>
<clipPath id="clip-4">
<path clip-rule="nonzero" d="M 1892.839844 1278.609375 C 1883.761719 1296.320312 1873.601562 1313.78125 1862.449219 1330.960938 C 1873.601562 1313.78125 1883.761719 1296.320312 1892.839844 1278.609375 Z M 1892.839844 1278.609375 "/>
</clipPath>
<clipPath id="clip-5">
<path clip-rule="nonzero" d="M 1892.839844 1278.609375 C 1883.761719 1296.320312 1873.601562 1313.78125 1862.449219 1330.960938 C 1873.601562 1313.78125 1883.761719 1296.320312 1892.839844 1278.609375 "/>
</clipPath>
<linearGradient id="linear-pattern-1" gradientUnits="userSpaceOnUse" x1="0.63172" y1="0" x2="0.719521" y2="0" gradientTransform="matrix(126.349, 639.642, 639.642, -126.349, 1792.28, 872.63)">
<stop offset="0" stop-color="rgb(78.511047%, 56.690979%, 10.025024%)" stop-opacity="1"/>
<stop offset="0.125" stop-color="rgb(78.329468%, 56.546021%, 10.070801%)" stop-opacity="1"/>
<stop offset="0.25" stop-color="rgb(78.004456%, 56.291199%, 10.151672%)" stop-opacity="1"/>
<stop offset="0.375" stop-color="rgb(77.648926%, 56.09436%, 10.202026%)" stop-opacity="1"/>
<stop offset="0.5" stop-color="rgb(77.301025%, 55.89447%, 10.25238%)" stop-opacity="1"/>
<stop offset="0.625" stop-color="rgb(77.012634%, 55.639648%, 10.324097%)" stop-opacity="1"/>
<stop offset="0.75" stop-color="rgb(76.646423%, 55.310059%, 10.386658%)" stop-opacity="1"/>
<stop offset="0.875" stop-color="rgb(76.31073%, 55.093384%, 10.440063%)" stop-opacity="1"/>
<stop offset="1" stop-color="rgb(76.081848%, 54.974365%, 10.482788%)" stop-opacity="1"/>
</linearGradient>
<clipPath id="clip-6">
<path clip-rule="nonzero" d="M 217 702 L 1817 702 L 1817 1790 L 217 1790 Z M 217 702 "/>
</clipPath>
<clipPath id="clip-7">
<path clip-rule="nonzero" d="M 905.132812 1694.5 C 420.484375 1690.191406 172.132812 1427.019531 350.417969 1106.710938 C 438.519531 948.488281 614.207031 805.898438 827.949219 702.648438 C 541.835938 804.488281 309.601562 994.421875 239.167969 1211.039062 C 134.417969 1533.078125 426.898438 1792.179688 892.347656 1789.78125 C 1227.808594 1788.050781 1561.578125 1650.960938 1761.050781 1453.96875 C 1780.730469 1434.539062 1799.109375 1414.53125 1816.050781 1394 C 1799.109375 1414.53125 1780.730469 1434.539062 1761.050781 1453.96875 C 1519.171875 1601.878906 1202.238281 1697.128906 905.132812 1694.5 Z M 905.132812 1694.5 "/>
</clipPath>
<clipPath id="clip-8">
<path clip-rule="nonzero" d="M 905.132812 1694.5 C 420.484375 1690.191406 172.132812 1427.019531 350.417969 1106.710938 C 438.519531 948.488281 614.207031 805.898438 827.949219 702.648438 C 541.835938 804.488281 309.601562 994.421875 239.167969 1211.039062 C 134.417969 1533.078125 426.898438 1792.179688 892.347656 1789.78125 C 1227.808594 1788.050781 1561.578125 1650.960938 1761.050781 1453.96875 C 1780.730469 1434.539062 1799.109375 1414.53125 1816.050781 1394 C 1799.109375 1414.53125 1780.730469 1434.539062 1761.050781 1453.96875 C 1519.171875 1601.878906 1202.238281 1697.128906 905.132812 1694.5 "/>
</clipPath>
<linearGradient id="linear-pattern-2" gradientUnits="userSpaceOnUse" x1="-0.748518" y1="0" x2="1.390671" y2="0" gradientTransform="matrix(126.349, 639.642, 639.642, -126.349, 948.795, 1039.25)">
<stop offset="0" stop-color="rgb(98.005676%, 71.205139%, 3.985596%)" stop-opacity="1"/>
<stop offset="0.25" stop-color="rgb(98.005676%, 71.205139%, 3.985596%)" stop-opacity="1"/>
<stop offset="0.3125" stop-color="rgb(98.005676%, 71.205139%, 3.985596%)" stop-opacity="1"/>
<stop offset="0.34375" stop-color="rgb(98.005676%, 71.205139%, 3.985596%)" stop-opacity="1"/>
<stop offset="0.351563" stop-color="rgb(97.962952%, 71.160889%, 4.00238%)" stop-opacity="1"/>
<stop offset="0.355469" stop-color="rgb(97.715759%, 70.904541%, 4.100037%)" stop-opacity="1"/>
<stop offset="0.359375" stop-color="rgb(97.511292%, 70.692444%, 4.179382%)" stop-opacity="1"/>
<stop offset="0.363281" stop-color="rgb(97.30835%, 70.483398%, 4.260254%)" stop-opacity="1"/>
<stop offset="0.367188" stop-color="rgb(97.103882%, 70.272827%, 4.3396%)" stop-opacity="1"/>
<stop offset="0.371094" stop-color="rgb(96.90094%, 70.063782%, 4.418945%)" stop-opacity="1"/>
<stop offset="0.375" stop-color="rgb(96.696472%, 69.85321%, 4.498291%)" stop-opacity="1"/>
<stop offset="0.378906" stop-color="rgb(96.495056%, 69.644165%, 4.577637%)" stop-opacity="1"/>
<stop offset="0.382813" stop-color="rgb(96.292114%, 69.436646%, 4.655457%)" stop-opacity="1"/>
<stop offset="0.386719" stop-color="rgb(96.090698%, 69.229126%, 4.734802%)" stop-opacity="1"/>
<stop offset="0.390625" stop-color="rgb(95.887756%, 69.020081%, 4.814148%)" stop-opacity="1"/>
<stop offset="0.394531" stop-color="rgb(95.692444%, 68.899536%, 4.876709%)" stop-opacity="1"/>
<stop offset="0.398438" stop-color="rgb(95.497131%, 68.780518%, 4.940796%)" stop-opacity="1"/>
<stop offset="0.402344" stop-color="rgb(95.301819%, 68.647766%, 5.006409%)" stop-opacity="1"/>
<stop offset="0.40625" stop-color="rgb(95.10498%, 68.515015%, 5.072021%)" stop-opacity="1"/>
<stop offset="0.410156" stop-color="rgb(94.789124%, 68.287659%, 5.180359%)" stop-opacity="1"/>
<stop offset="0.414063" stop-color="rgb(94.471741%, 68.057251%, 5.288696%)" stop-opacity="1"/>
<stop offset="0.417969" stop-color="rgb(94.20929%, 67.840576%, 5.383301%)" stop-opacity="1"/>
<stop offset="0.421875" stop-color="rgb(93.945312%, 67.623901%, 5.476379%)" stop-opacity="1"/>
<stop offset="0.425781" stop-color="rgb(93.745422%, 67.419434%, 5.552673%)" stop-opacity="1"/>
<stop offset="0.429688" stop-color="rgb(93.545532%, 67.21344%, 5.628967%)" stop-opacity="1"/>
<stop offset="0.433594" stop-color="rgb(93.211365%, 67.111206%, 5.723572%)" stop-opacity="1"/>
<stop offset="0.4375" stop-color="rgb(92.877197%, 67.010498%, 5.81665%)" stop-opacity="1"/>
<stop offset="0.441406" stop-color="rgb(92.64679%, 66.83197%, 5.895996%)" stop-opacity="1"/>
<stop offset="0.445313" stop-color="rgb(92.41333%, 66.653442%, 5.976868%)" stop-opacity="1"/>
<stop offset="0.449219" stop-color="rgb(92.053223%, 66.421509%, 6.09436%)" stop-opacity="1"/>
<stop offset="0.453125" stop-color="rgb(91.693115%, 66.188049%, 6.211853%)" stop-opacity="1"/>
<stop offset="0.457031" stop-color="rgb(91.490173%, 66.136169%, 6.266785%)" stop-opacity="1"/>
<stop offset="0.460938" stop-color="rgb(91.285706%, 66.08429%, 6.323242%)" stop-opacity="1"/>
<stop offset="0.464844" stop-color="rgb(91.088867%, 65.890503%, 6.396484%)" stop-opacity="1"/>
<stop offset="0.46875" stop-color="rgb(90.890503%, 65.693665%, 6.471252%)" stop-opacity="1"/>
<stop offset="0.472656" stop-color="rgb(90.681458%, 65.490723%, 6.547546%)" stop-opacity="1"/>
<stop offset="0.476562" stop-color="rgb(90.472412%, 65.287781%, 6.625366%)" stop-opacity="1"/>
<stop offset="0.480469" stop-color="rgb(90.110779%, 65.057373%, 6.742859%)" stop-opacity="1"/>
<stop offset="0.484375" stop-color="rgb(89.749146%, 64.828491%, 6.858826%)" stop-opacity="1"/>
<stop offset="0.488281" stop-color="rgb(89.52179%, 64.624023%, 6.939697%)" stop-opacity="1"/>
<stop offset="0.492188" stop-color="rgb(89.295959%, 64.419556%, 7.022095%)" stop-opacity="1"/>
<stop offset="0.496094" stop-color="rgb(88.954163%, 64.195251%, 7.131958%)" stop-opacity="1"/>
<stop offset="0.5" stop-color="rgb(88.613892%, 63.972473%, 7.241821%)" stop-opacity="1"/>
<stop offset="0.503906" stop-color="rgb(88.369751%, 63.766479%, 7.327271%)" stop-opacity="1"/>
<stop offset="0.507812" stop-color="rgb(88.12561%, 63.560486%, 7.41272%)" stop-opacity="1"/>
<stop offset="0.511719" stop-color="rgb(87.805176%, 63.342285%, 7.516479%)" stop-opacity="1"/>
<stop offset="0.515625" stop-color="rgb(87.484741%, 63.122559%, 7.620239%)" stop-opacity="1"/>
<stop offset="0.519531" stop-color="rgb(87.294006%, 62.988281%, 7.6828%)" stop-opacity="1"/>
<stop offset="0.523438" stop-color="rgb(87.103271%, 62.852478%, 7.746887%)" stop-opacity="1"/>
<stop offset="0.527344" stop-color="rgb(86.837769%, 62.739563%, 7.823181%)" stop-opacity="1"/>
<stop offset="0.53125" stop-color="rgb(86.572266%, 62.626648%, 7.901001%)" stop-opacity="1"/>
<stop offset="0.535156" stop-color="rgb(86.280823%, 62.414551%, 7.995605%)" stop-opacity="1"/>
<stop offset="0.539062" stop-color="rgb(85.98938%, 62.203979%, 8.091736%)" stop-opacity="1"/>
<stop offset="0.542969" stop-color="rgb(85.797119%, 62.011719%, 8.161926%)" stop-opacity="1"/>
<stop offset="0.546875" stop-color="rgb(85.604858%, 61.816406%, 8.232117%)" stop-opacity="1"/>
<stop offset="0.550781" stop-color="rgb(85.325623%, 61.560059%, 8.293152%)" stop-opacity="1"/>
<stop offset="0.554688" stop-color="rgb(85.047913%, 61.300659%, 8.352661%)" stop-opacity="1"/>
<stop offset="0.558594" stop-color="rgb(84.687805%, 61.146545%, 8.428955%)" stop-opacity="1"/>
<stop offset="0.5625" stop-color="rgb(84.327698%, 60.992432%, 8.506775%)" stop-opacity="1"/>
<stop offset="0.566406" stop-color="rgb(84.078979%, 60.844421%, 8.583069%)" stop-opacity="1"/>
<stop offset="0.570313" stop-color="rgb(83.828735%, 60.696411%, 8.660889%)" stop-opacity="1"/>
<stop offset="0.574219" stop-color="rgb(83.641052%, 60.507202%, 8.729553%)" stop-opacity="1"/>
<stop offset="0.578125" stop-color="rgb(83.451843%, 60.316467%, 8.796692%)" stop-opacity="1"/>
<stop offset="0.582031" stop-color="rgb(83.009338%, 60.140991%, 8.869934%)" stop-opacity="1"/>
<stop offset="0.585938" stop-color="rgb(82.566833%, 59.965515%, 8.94165%)" stop-opacity="1"/>
<stop offset="0.589844" stop-color="rgb(82.321167%, 59.779358%, 9.010315%)" stop-opacity="1"/>
<stop offset="0.59375" stop-color="rgb(82.073975%, 59.594727%, 9.078979%)" stop-opacity="1"/>
<stop offset="0.597656" stop-color="rgb(81.723022%, 59.2453%, 9.204102%)" stop-opacity="1"/>
<stop offset="0.601563" stop-color="rgb(81.373596%, 58.895874%, 9.327698%)" stop-opacity="1"/>
<stop offset="0.605469" stop-color="rgb(81.17218%, 58.694458%, 9.399414%)" stop-opacity="1"/>
<stop offset="0.609375" stop-color="rgb(80.97229%, 58.491516%, 9.47113%)" stop-opacity="1"/>
<stop offset="0.613281" stop-color="rgb(80.65033%, 58.352661%, 9.49707%)" stop-opacity="1"/>
<stop offset="0.617188" stop-color="rgb(80.326843%, 58.21228%, 9.526062%)" stop-opacity="1"/>
<stop offset="0.621094" stop-color="rgb(80.142212%, 58.027649%, 9.590149%)" stop-opacity="1"/>
<stop offset="0.625" stop-color="rgb(79.956055%, 57.843018%, 9.655762%)" stop-opacity="1"/>
<stop offset="0.628906" stop-color="rgb(79.772949%, 57.658386%, 9.721375%)" stop-opacity="1"/>
<stop offset="0.632813" stop-color="rgb(79.588318%, 57.475281%, 9.785461%)" stop-opacity="1"/>
<stop offset="0.636719" stop-color="rgb(79.348755%, 57.269287%, 9.854126%)" stop-opacity="1"/>
<stop offset="0.640625" stop-color="rgb(79.109192%, 57.063293%, 9.922791%)" stop-opacity="1"/>
<stop offset="0.644531" stop-color="rgb(78.674316%, 56.776428%, 10.005188%)" stop-opacity="1"/>
<stop offset="0.648438" stop-color="rgb(78.237915%, 56.489563%, 10.08606%)" stop-opacity="1"/>
<stop offset="0.652344" stop-color="rgb(78.018188%, 56.323242%, 10.137939%)" stop-opacity="1"/>
<stop offset="0.65625" stop-color="rgb(77.796936%, 56.15387%, 10.191345%)" stop-opacity="1"/>
<stop offset="0.660156" stop-color="rgb(77.519226%, 56.007385%, 10.22644%)" stop-opacity="1"/>
<stop offset="0.664063" stop-color="rgb(77.241516%, 55.859375%, 10.261536%)" stop-opacity="1"/>
<stop offset="0.667969" stop-color="rgb(77.008057%, 55.641174%, 10.316467%)" stop-opacity="1"/>
<stop offset="0.671875" stop-color="rgb(76.776123%, 55.422974%, 10.369873%)" stop-opacity="1"/>
<stop offset="0.675781" stop-color="rgb(76.515198%, 55.249023%, 10.411072%)" stop-opacity="1"/>
<stop offset="0.679688" stop-color="rgb(76.252747%, 55.072021%, 10.452271%)" stop-opacity="1"/>
<stop offset="0.6875" stop-color="rgb(76.092529%, 54.93927%, 10.473633%)" stop-opacity="1"/>
<stop offset="0.691406" stop-color="rgb(75.695801%, 54.534912%, 10.513306%)" stop-opacity="1"/>
<stop offset="0.695313" stop-color="rgb(75.460815%, 54.266357%, 10.531616%)" stop-opacity="1"/>
<stop offset="0.699219" stop-color="rgb(75.12207%, 54.118347%, 10.595703%)" stop-opacity="1"/>
<stop offset="0.703125" stop-color="rgb(74.784851%, 53.970337%, 10.661316%)" stop-opacity="1"/>
<stop offset="0.707031" stop-color="rgb(74.455261%, 53.778076%, 10.716248%)" stop-opacity="1"/>
<stop offset="0.710938" stop-color="rgb(74.127197%, 53.587341%, 10.771179%)" stop-opacity="1"/>
<stop offset="0.714844" stop-color="rgb(74.023438%, 53.398132%, 10.795593%)" stop-opacity="1"/>
<stop offset="0.71875" stop-color="rgb(73.918152%, 53.205872%, 10.818481%)" stop-opacity="1"/>
<stop offset="0.726563" stop-color="rgb(73.693848%, 53.074646%, 10.836792%)" stop-opacity="1"/>
<stop offset="0.730469" stop-color="rgb(73.155212%, 52.700806%, 10.887146%)" stop-opacity="1"/>
<stop offset="0.734375" stop-color="rgb(72.840881%, 52.459717%, 10.917664%)" stop-opacity="1"/>
<stop offset="0.738281" stop-color="rgb(72.531128%, 52.18811%, 10.952759%)" stop-opacity="1"/>
<stop offset="0.742188" stop-color="rgb(72.219849%, 51.914978%, 10.987854%)" stop-opacity="1"/>
<stop offset="0.746094" stop-color="rgb(72.03064%, 51.733398%, 11.042786%)" stop-opacity="1"/>
<stop offset="0.75" stop-color="rgb(71.839905%, 51.550293%, 11.096191%)" stop-opacity="1"/>
<stop offset="0.753906" stop-color="rgb(71.542358%, 51.425171%, 11.116028%)" stop-opacity="1"/>
<stop offset="0.757813" stop-color="rgb(71.244812%, 51.296997%, 11.135864%)" stop-opacity="1"/>
<stop offset="0.761719" stop-color="rgb(70.942688%, 51.03302%, 11.167908%)" stop-opacity="1"/>
<stop offset="0.765625" stop-color="rgb(70.640564%, 50.770569%, 11.198425%)" stop-opacity="1"/>
<stop offset="0.769531" stop-color="rgb(70.481873%, 50.523376%, 11.195374%)" stop-opacity="1"/>
<stop offset="0.773438" stop-color="rgb(70.321655%, 50.276184%, 11.192322%)" stop-opacity="1"/>
<stop offset="0.777344" stop-color="rgb(69.869995%, 49.992371%, 11.25946%)" stop-opacity="1"/>
<stop offset="0.78125" stop-color="rgb(69.418335%, 49.710083%, 11.323547%)" stop-opacity="1"/>
<stop offset="0.785156" stop-color="rgb(69.146729%, 49.476624%, 11.34491%)" stop-opacity="1"/>
<stop offset="0.789063" stop-color="rgb(68.875122%, 49.243164%, 11.364746%)" stop-opacity="1"/>
<stop offset="0.792969" stop-color="rgb(68.70575%, 49.108887%, 11.351013%)" stop-opacity="1"/>
<stop offset="0.796875" stop-color="rgb(68.533325%, 48.973083%, 11.338806%)" stop-opacity="1"/>
<stop offset="0.800781" stop-color="rgb(68.234253%, 48.753357%, 11.36322%)" stop-opacity="1"/>
<stop offset="0.804688" stop-color="rgb(67.936707%, 48.532104%, 11.387634%)" stop-opacity="1"/>
<stop offset="0.808594" stop-color="rgb(67.63916%, 48.368835%, 11.405945%)" stop-opacity="1"/>
<stop offset="0.8125" stop-color="rgb(67.340088%, 48.205566%, 11.424255%)" stop-opacity="1"/>
<stop offset="0.875" stop-color="rgb(67.156982%, 48.045349%, 11.44104%)" stop-opacity="1"/>
<stop offset="1" stop-color="rgb(66.970825%, 47.883606%, 11.457825%)" stop-opacity="1"/>
</linearGradient>
</defs>
<path fill-rule="nonzero" fill="rgb(7.067871%, 6.533813%, 5.905151%)" fill-opacity="1" d="M 1434.789062 561.488281 L 1434.789062 533.410156 L 1408.621094 533.410156 L 1408.621094 500.859375 L 1434.789062 500.859375 L 1434.789062 488.730469 L 1497.339844 488.730469 L 1497.339844 381.820312 C 1497.339844 359.511719 1514.050781 341.121094 1535.628906 338.449219 L 1535.628906 179.808594 L 1545.839844 179.808594 L 1545.839844 338.371094 C 1567.738281 340.75 1584.78125 359.289062 1584.78125 381.820312 L 1584.78125 488.730469 L 1646.050781 488.730469 L 1646.050781 500.859375 L 1677.328125 500.859375 L 1677.328125 533.410156 L 1646.050781 533.410156 L 1646.050781 561.488281 L 1630.410156 561.488281 L 1630.410156 698.71875 L 1662.648438 698.71875 L 1662.648438 763.511719 L 1640.308594 763.511719 L 1640.308594 781.699219 L 1616.050781 781.699219 L 1616.050781 1082.320312 L 1464.78125 1082.320312 L 1464.78125 781.699219 L 1437.980469 781.699219 L 1437.980469 763.511719 L 1420.738281 763.511719 L 1420.738281 698.71875 L 1453.769531 698.71875 L 1453.769531 561.488281 L 1434.789062 561.488281 "/>
<path fill-rule="nonzero" fill="rgb(97.993469%, 71.051025%, 4.011536%)" fill-opacity="1" d="M 1541.378906 595.960938 C 1555.828125 595.960938 1567.550781 607.679688 1567.550781 622.128906 L 1567.550781 698.71875 L 1515.210938 698.71875 L 1515.210938 622.128906 C 1515.210938 607.679688 1526.921875 595.960938 1541.378906 595.960938 "/>
<path fill-rule="nonzero" fill="rgb(97.993469%, 71.051025%, 4.011536%)" fill-opacity="1" d="M 1540.421875 811.058594 C 1549.578125 811.058594 1557.011719 817.390625 1557.011719 825.199219 L 1557.011719 866.589844 L 1523.820312 866.589844 L 1523.820312 825.199219 C 1523.820312 817.390625 1531.25 811.058594 1540.421875 811.058594 "/>
<path fill-rule="nonzero" fill="rgb(97.993469%, 71.051025%, 4.011536%)" fill-opacity="1" d="M 1597.699219 811.058594 C 1604.21875 811.058594 1609.511719 817.390625 1609.511719 825.199219 L 1609.511719 866.589844 L 1585.898438 866.589844 L 1585.898438 825.199219 C 1585.898438 817.390625 1591.179688 811.058594 1597.699219 811.058594 "/>
<path fill-rule="nonzero" fill="rgb(97.993469%, 71.051025%, 4.011536%)" fill-opacity="1" d="M 1481.859375 811.058594 C 1488.378906 811.058594 1493.671875 817.390625 1493.671875 825.199219 L 1493.671875 866.589844 L 1470.050781 866.589844 L 1470.050781 825.199219 C 1470.050781 817.390625 1475.339844 811.058594 1481.859375 811.058594 "/>
<path fill-rule="nonzero" fill="rgb(7.067871%, 6.533813%, 5.905151%)" fill-opacity="1" d="M 1166.761719 634.441406 L 1166.761719 615.96875 L 1149.550781 615.96875 L 1149.550781 594.558594 L 1166.761719 594.558594 L 1166.761719 586.578125 L 1207.898438 586.578125 L 1207.898438 516.269531 C 1207.898438 501.589844 1218.890625 489.5 1233.078125 487.738281 L 1233.078125 383.398438 L 1239.800781 383.398438 L 1239.800781 487.691406 C 1254.199219 489.261719 1265.410156 501.449219 1265.410156 516.269531 L 1265.410156 586.578125 L 1305.710938 586.578125 L 1305.710938 594.558594 L 1326.28125 594.558594 L 1326.28125 615.96875 L 1305.710938 615.96875 L 1305.710938 634.441406 L 1295.421875 634.441406 L 1295.421875 724.691406 L 1316.621094 724.691406 L 1316.621094 767.308594 L 1301.929688 767.308594 L 1301.929688 779.269531 L 1285.980469 779.269531 L 1285.980469 976.988281 L 1186.488281 976.988281 L 1186.488281 779.269531 L 1168.859375 779.269531 L 1168.859375 767.308594 L 1157.519531 767.308594 L 1157.519531 724.691406 L 1179.25 724.691406 L 1179.25 634.441406 L 1166.761719 634.441406 "/>
<path fill-rule="nonzero" fill="rgb(97.993469%, 71.051025%, 4.011536%)" fill-opacity="1" d="M 1236.859375 657.109375 C 1246.371094 657.109375 1254.070312 664.808594 1254.070312 674.320312 L 1254.070312 724.699219 L 1219.648438 724.699219 L 1219.648438 674.320312 C 1219.648438 664.808594 1227.359375 657.109375 1236.859375 657.109375 "/>
<path fill-rule="nonzero" fill="rgb(97.993469%, 71.051025%, 4.011536%)" fill-opacity="1" d="M 1236.230469 798.578125 C 1242.261719 798.578125 1247.148438 802.738281 1247.148438 807.878906 L 1247.148438 835.101562 L 1225.320312 835.101562 L 1225.320312 807.878906 C 1225.320312 802.738281 1230.199219 798.578125 1236.230469 798.578125 "/>
<path fill-rule="nonzero" fill="rgb(97.993469%, 71.051025%, 4.011536%)" fill-opacity="1" d="M 1273.910156 798.578125 C 1278.199219 798.578125 1281.679688 802.738281 1281.679688 807.878906 L 1281.679688 835.101562 L 1266.140625 835.101562 L 1266.140625 807.878906 C 1266.140625 802.738281 1269.621094 798.578125 1273.910156 798.578125 "/>
<path fill-rule="nonzero" fill="rgb(97.993469%, 71.051025%, 4.011536%)" fill-opacity="1" d="M 1197.71875 798.578125 C 1202.011719 798.578125 1205.480469 802.738281 1205.480469 807.878906 L 1205.480469 835.101562 L 1189.949219 835.101562 L 1189.949219 807.878906 C 1189.949219 802.738281 1193.429688 798.578125 1197.71875 798.578125 "/>
<path fill-rule="nonzero" fill="rgb(11.035156%, 10.409546%, 10.093689%)" fill-opacity="1" d="M 767.34375 1513.519531 L 1191.921875 1503.519531 L 1191.921875 770.578125 L 767.34375 910.53125 L 767.34375 1513.519531 "/>
<path fill-rule="nonzero" fill="rgb(7.067871%, 6.533813%, 5.905151%)" fill-opacity="1" d="M 1614.128906 1559.089844 L 1191.921875 1503.519531 L 1191.921875 770.578125 L 1614.128906 906.96875 L 1614.128906 1559.089844 "/>
<path fill-rule="nonzero" fill="rgb(97.993469%, 71.051025%, 4.011536%)" fill-opacity="1" d="M 768.136719 1064.710938 L 1191.921875 990.378906 L 1191.921875 887.601562 L 768.136719 987.21875 L 768.136719 1064.710938 "/>
<path fill-rule="nonzero" fill="rgb(97.993469%, 71.051025%, 4.011536%)" fill-opacity="1" d="M 1191.921875 887.601562 L 1191.921875 990.378906 L 1614.128906 1064.710938 L 1614.128906 991.179688 L 1191.921875 887.601562 "/>
<path fill-rule="nonzero" fill="rgb(97.993469%, 71.051025%, 4.011536%)" fill-opacity="1" d="M 1191.921875 1079.53125 L 1077.480469 1095.539062 L 1077.480469 1038.609375 L 1191.921875 1019.050781 L 1191.921875 1079.53125 "/>
<path fill-rule="nonzero" fill="rgb(97.993469%, 71.051025%, 4.011536%)" fill-opacity="1" d="M 840.875 1076.03125 L 840.875 1122.230469 L 768.136719 1132.960938 L 768.136719 1086.320312 L 840.875 1076.03125 "/>
<path fill-rule="nonzero" fill="rgb(97.993469%, 71.051025%, 4.011536%)" fill-opacity="1" d="M 999.203125 1104.488281 L 896.023438 1116.300781 L 896.023438 1067.078125 L 999.203125 1052.25 L 999.203125 1104.488281 "/>
<path fill-rule="nonzero" fill="rgb(97.993469%, 71.051025%, 4.011536%)" fill-opacity="1" d="M 1038.539062 1041.578125 C 1056.148438 1052.25 1050.199219 1068.859375 1050.199219 1068.859375 C 1056.78125 1074.191406 1056.128906 1081.898438 1056.128906 1089.738281 C 1056.128906 1097.578125 1039.53125 1112.140625 1039.53125 1112.140625 C 1039.53125 1112.140625 1031.820312 1105.621094 1025.289062 1095.539062 C 1018.769531 1085.460938 1028.851562 1070.640625 1028.851562 1070.640625 C 1027.269531 1049.878906 1038.539062 1041.578125 1038.539062 1041.578125 "/>
<path fill-rule="nonzero" fill="rgb(97.993469%, 71.051025%, 4.011536%)" fill-opacity="1" d="M 1191.921875 1079.53125 L 1306.371094 1095.539062 L 1306.371094 1038.609375 L 1191.921875 1019.050781 L 1191.921875 1079.53125 "/>
<path fill-rule="nonzero" fill="rgb(97.993469%, 71.051025%, 4.011536%)" fill-opacity="1" d="M 1542.96875 1076.03125 L 1542.96875 1122.230469 L 1615.710938 1132.960938 L 1615.710938 1086.320312 L 1542.96875 1076.03125 "/>
<path fill-rule="nonzero" fill="rgb(97.993469%, 71.051025%, 4.011536%)" fill-opacity="1" d="M 1384.640625 1104.488281 L 1487.820312 1116.300781 L 1487.820312 1067.078125 L 1384.640625 1052.25 L 1384.640625 1104.488281 "/>
<path fill-rule="nonzero" fill="rgb(97.993469%, 71.051025%, 4.011536%)" fill-opacity="1" d="M 1345.308594 1041.578125 C 1327.699219 1052.25 1333.648438 1068.859375 1333.648438 1068.859375 C 1327.058594 1074.191406 1327.71875 1081.898438 1327.71875 1089.738281 C 1327.71875 1097.578125 1344.320312 1112.140625 1344.320312 1112.140625 C 1344.320312 1112.140625 1352.03125 1105.621094 1358.550781 1095.539062 C 1365.078125 1085.460938 1355 1070.640625 1355 1070.640625 C 1356.578125 1049.878906 1345.308594 1041.578125 1345.308594 1041.578125 "/>
<g clip-path="url(#clip-0)">
<g clip-path="url(#clip-1)">
<g clip-path="url(#clip-2)">
<path fill-rule="nonzero" fill="url(#linear-pattern-0)" d="M 1808.925781 1357.925781 L 1843.882812 1351.023438 L 1852.09375 1392.59375 L 1817.136719 1399.5 Z M 1808.925781 1357.925781 "/>
</g>
</g>
</g>
<g clip-path="url(#clip-3)">
<g clip-path="url(#clip-4)">
<g clip-path="url(#clip-5)">
<path fill-rule="nonzero" fill="url(#linear-pattern-1)" d="M 1852.496094 1280.574219 L 1891.699219 1272.832031 L 1902.792969 1328.992188 L 1863.589844 1336.738281 Z M 1852.496094 1280.574219 "/>
</g>
</g>
</g>
<g clip-path="url(#clip-6)">
<g clip-path="url(#clip-7)">
<g clip-path="url(#clip-8)">
<path fill-rule="nonzero" fill="url(#linear-pattern-2)" d="M -72.714844 743.566406 L 1752.898438 382.949219 L 2023.183594 1751.265625 L 197.566406 2111.878906 Z M -72.714844 743.566406 "/>
</g>
</g>
</g>
<path fill-rule="nonzero" fill="rgb(100%, 100%, 100%)" fill-opacity="1" d="M 954.253906 1509.011719 C 504.992188 1490.390625 316.796875 1245.828125 533.859375 962.769531 C 615.71875 856.039062 743.519531 759.078125 895.082031 680.671875 C 910.871094 672.480469 926.976562 664.5 943.273438 656.71875 C 961.84375 647.890625 980.691406 639.320312 999.820312 631.070312 C 987.734375 635.339844 975.695312 639.738281 963.800781 644.269531 C 917.203125 661.929688 871.761719 681.46875 827.949219 702.648438 C 614.207031 805.898438 438.519531 948.488281 350.417969 1106.710938 C 172.132812 1427.019531 420.484375 1690.191406 905.132812 1694.5 C 1202.238281 1697.128906 1519.171875 1601.878906 1761.050781 1453.96875 C 1824.039062 1391.800781 1873.648438 1323.628906 1905.671875 1251.871094 C 1642.839844 1416.621094 1275.308594 1522.320312 954.253906 1509.011719 "/>
<path fill-rule="nonzero" fill="rgb(7.067871%, 6.533813%, 5.905151%)" fill-opacity="1" d="M 1945.988281 1075.949219 C 1945.789062 1116.601562 1938.910156 1158.890625 1924.78125 1202.328125 C 1919.359375 1219.011719 1912.960938 1235.539062 1905.671875 1251.871094 C 1642.839844 1416.621094 1275.308594 1522.320312 954.253906 1509.011719 C 504.992188 1490.390625 316.796875 1245.828125 533.859375 962.769531 C 615.71875 856.039062 743.519531 759.078125 895.082031 680.671875 C 910.871094 672.480469 926.976562 664.5 943.273438 656.71875 C 933.527344 662.75 923.914062 668.859375 914.398438 675.039062 C 812.925781 740.921875 725.074219 815.269531 659.828125 894.230469 C 428.878906 1173.601562 567.519531 1405.078125 969.496094 1411.210938 C 1290.980469 1416.101562 1683.519531 1275.398438 1945.988281 1075.949219 "/>
<path fill-rule="nonzero" fill="rgb(7.067871%, 6.533813%, 5.905151%)" fill-opacity="1" d="M 836.625 694.011719 L 933.324219 632.289062 L 819.304688 549.460938 L 854.628906 530.28125 L 922.660156 558.691406 L 958.582031 539.558594 C 965.804688 543.070312 970.453125 548.558594 971.796875 556.558594 L 952.332031 570.808594 L 998.78125 591.210938 L 1055.238281 559.691406 C 1069.050781 553.769531 1082.511719 551.800781 1095.730469 552.808594 C 1094.210938 566.339844 1085 577.960938 1070.089844 588.160156 L 1015.410156 619.800781 L 1009.371094 674.96875 L 1031.769531 661.511719 C 1040.070312 664.671875 1043.839844 670.761719 1042.488281 680.148438 L 1006.289062 703.441406 L 1000.78125 777.769531 L 967.234375 797.058594 L 949.996094 660.28125 L 847.78125 715.058594 L 838.808594 778.398438 L 819.5 790.269531 L 811.335938 724 L 756.585938 684.53125 L 777.046875 673.328125 L 836.625 694.011719 "/>
</svg>
